# xmcd
#
# Track frame offsets: 
#        150
#        16785
#        25162
#        44717
#        57977
#        81735
#        88740
#        98537
#        110407
#        123785
#        144367
#        169955
#
# Disc length: 2415 seconds
#
# Revision: 0
# Processed by: cddbd v1.5.2PL0 Copyright (c) Steve Scherf et al.
# Submitted via: ExactAudioCopy v0.95b4
#
DISCID=9a096d0c
DTITLE=Charly Schreckschuss and Band - Ach, Luise
DYEAR=1990
DGENRE=Blues
TTITLE0=Ach, Luise
TTITLE1=Alles, was Du hast...
TTITLE2=Eierkater-Blues
TTITLE3=Ich bin so wie ich bin
TTITLE4=Wer sind wir?
TTITLE5=Auf Wiederhören
TTITLE6=Ileosakralgelenkblockade
TTITLE7=Verstehst Du dieses Lied
TTITLE8=Ohne mich
TTITLE9=Die Dummheit macht sich breit
TTITLE10=Dreckige Wäsche
TTITLE11=Kaninchen in Weinsoße
EXTD=
EXTT0=
EXTT1=
EXTT2=
EXTT3=
EXTT4=
EXTT5=
EXTT6=
EXTT7=
EXTT8=
EXTT9=
EXTT10=
EXTT11=
PLAYORDER=
